<svg version="1.1" id="Layer_1" xmlns="http://www.w3.org/2000/svg" xmlns:xlink="http://www.w3.org/1999/xlink" x="0px" y="0px"
	 width="100%" viewBox="0 0 572 564" enable-background="new 0 0 572 564" xml:space="preserve">
<path fill="none" opacity="1.000000" stroke="#000000" stroke-linecap="round" stroke-linejoin="round" stroke-width="16"
	d="
M70.500000,516.500000 
	C74.261024,517.664917 78.132469,517.509705 82.000000,517.507935 
	C112.666664,517.493713 143.333328,517.500000 174.000000,517.500000 
	C287.000000,517.500000 400.000000,517.500000 513.000000,517.500000 
	C519.500000,517.500000 519.500000,517.500000 519.500000,511.000000 
	C519.500000,462.500000 519.500427,414.000000 519.499390,365.500000 
	C519.499268,359.504364 519.495605,359.501709 513.500000,359.500610 
	C502.500000,359.498566 491.494476,359.305237 480.503326,359.616852 
	C477.140900,359.712219 475.107971,358.462738 473.518494,355.988129 
	C463.149231,339.844513 452.860687,323.649109 442.490936,307.505829 
	C434.870575,295.642761 427.119446,283.863403 419.545654,271.970947 
	C418.255310,269.944885 416.739868,269.436768 414.499603,269.457947 
	C404.333862,269.554047 394.166656,269.493469 384.000000,269.502563 
	C378.354919,269.507629 378.015778,269.801300 378.009979,275.500000 
	C377.986115,299.000000 378.008179,322.500000 377.993652,346.000000 
	C377.990448,351.166687 375.769135,356.333344 378.000000,361.500000 
"/>
<path fill="none" opacity="1.000000" stroke="#000000" stroke-linecap="round" stroke-linejoin="round" stroke-width="16"
	d="
M180.500000,516.000000 
	C181.618423,510.461060 180.071045,504.998901 179.868256,499.504852 
	C179.498505,489.487762 178.629959,479.463837 177.416016,469.510254 
	C176.218246,459.689240 175.710205,449.812073 174.708252,439.978790 
	C173.795853,431.024353 173.219254,421.996399 172.517227,412.998657 
	C171.451324,399.337128 170.542328,385.663391 169.487350,372.000977 
	C168.547516,359.829681 167.572845,347.660095 166.477097,335.502075 
	C165.589966,325.658539 164.138062,315.852814 163.607544,305.994202 
	C163.130829,297.135468 161.821579,288.327423 161.642593,279.497101 
	C161.404663,267.758331 159.424042,256.207581 158.878815,244.505646 
	C158.225388,230.481735 156.689529,216.498032 155.485062,202.501282 
	C155.153763,198.651306 154.641159,194.816940 154.196075,190.835251 
	C152.506485,190.714630 151.003387,190.516785 149.499969,190.514130 
	C135.833344,190.490036 122.165764,190.584869 108.500633,190.440277 
	C105.087700,190.404175 103.700409,191.197739 103.390167,194.991013 
	C101.793739,214.510391 99.867004,234.003250 97.989113,253.498947 
	C96.543755,268.504211 94.987915,283.498810 93.502861,298.500275 
	C91.325104,320.499176 89.162979,342.499634 87.001259,364.500122 
	C85.494698,379.832825 84.163269,395.184875 82.456139,410.495117 
	C80.581223,427.310211 78.948761,444.143280 77.452026,460.995728 
	C75.808800,479.497589 73.055763,497.899933 72.500000,516.500000 
"/>
<path fill="none" opacity="1.000000" stroke="#000000" stroke-linecap="round" stroke-linejoin="round" stroke-width="16"
	d="
M376.000000,353.500000 
	C371.027679,350.929474 369.320526,345.691925 366.591736,341.441101 
	C352.229126,319.066895 338.088806,296.548248 324.081604,273.949402 
	C321.913483,270.451355 319.477844,269.296509 315.497467,269.412842 
	C306.172089,269.685394 296.828766,269.669952 287.502167,269.419495 
	C283.566895,269.313812 282.394928,270.574493 282.420837,274.500519 
	C282.579163,298.499481 282.495331,322.500000 282.507751,346.500000 
	C282.508911,348.727081 282.624298,350.955017 281.500000,353.000000 
"/>
<path fill="none" opacity="1.000000" stroke="#000000" stroke-linecap="round" stroke-linejoin="round" stroke-width="16"
	d="
M339.500000,96.750000 
	C331.203339,111.588356 320.655579,124.750786 308.422394,136.418640 
	C294.202789,149.981110 278.525238,161.289215 259.026917,166.598846 
	C237.656860,172.418167 217.667648,169.343994 198.513321,158.975388 
	C187.526031,153.027771 177.787704,145.374817 168.987564,136.512344 
	C167.576202,135.091003 166.000000,133.833328 164.500000,132.500000 
"/>
<path fill="none" opacity="1.000000" stroke="#000000" stroke-linecap="round" stroke-linejoin="round" stroke-width="16"
	d="
M337.500000,98.500000 
	C333.764954,96.072823 329.781677,97.955833 326.005524,98.124168 
	C312.412415,98.730103 299.877655,94.922607 287.492798,90.018173 
	C273.041656,84.295471 259.495880,76.481308 244.516022,71.947052 
	C220.605789,64.709679 199.011520,70.479393 178.525192,83.041077 
	C176.293518,84.409462 174.482910,86.515671 171.500000,86.000000 
"/>
<path fill="none" opacity="1.000000" stroke="#000000" stroke-linecap="round" stroke-linejoin="round" stroke-width="16"
	d="
M282.500000,360.500000 
	C282.848572,355.757538 279.138824,353.584930 276.666748,350.371704 
	C271.610565,343.799622 267.459747,336.525482 263.007751,329.495087 
	C250.985107,310.509430 238.995544,291.502808 227.007034,272.495575 
	C225.828674,270.627350 224.636948,269.398438 221.999374,269.418732 
	C202.500534,269.568848 183.000000,269.497498 163.500031,269.520813 
	C163.166504,269.521210 162.833328,269.833344 162.500000,270.000000 
"/>
<path fill="none" opacity="1.000000" stroke="#000000" stroke-linecap="round" stroke-linejoin="round" stroke-width="16"
	d="
M244.500000,116.000000 
	C238.187561,115.458130 232.583130,112.401726 226.554947,110.793999 
	C217.950073,108.499054 209.158966,106.832901 200.497498,106.744011 
	C175.557846,106.488068 154.246384,115.012917 140.642868,137.088043 
	C133.284515,149.028809 128.290741,162.167419 127.500000,176.500000 
"/>
<path fill="none" opacity="1.000000" stroke="#000000" stroke-linecap="round" stroke-linejoin="round" stroke-width="16"
	d="
M224.500000,406.500000 
	C222.341705,407.263916 221.993988,409.014221 221.994675,411.000000 
	C222.002930,434.833344 221.993271,458.666656 222.027756,482.499969 
	C222.028976,483.342041 222.439148,484.183563 222.717316,485.250000 
	C242.500000,485.250000 262.250000,485.250000 282.250000,485.250000 
	C282.250000,459.000000 282.250000,433.000000 282.250000,406.500000 
	C263.002930,406.500000 244.001465,406.500000 225.000000,406.500000 
"/>
<path fill="none" opacity="1.000000" stroke="#000000" stroke-linecap="round" stroke-linejoin="round" stroke-width="16"
	d="
M324.500000,406.500000 
	C322.160522,407.256531 322.496063,409.191650 322.496490,411.000000 
	C322.501801,434.333344 322.533936,457.666779 322.457703,480.999847 
	C322.447998,483.969391 322.979919,485.585205 326.500427,485.559875 
	C344.499512,485.430267 362.500000,485.506622 380.499969,485.479126 
	C381.333923,485.477844 382.167450,485.171539 383.250000,484.958313 
	C383.250000,459.000000 383.250000,433.000000 383.250000,406.500000 
	C363.669525,406.500000 344.334778,406.500000 325.000000,406.500000 
"/>
<path fill="none" opacity="1.000000" stroke="#000000" stroke-linecap="round" stroke-linejoin="round" stroke-width="16"
	d="
M425.500000,406.500000 
	C423.160522,407.256531 423.496094,409.191650 423.496521,411.000000 
	C423.501831,434.333344 423.533966,457.666779 423.457733,480.999847 
	C423.448029,483.969391 423.979919,485.585236 427.500427,485.559875 
	C445.499512,485.430298 463.500000,485.506592 481.499969,485.479126 
	C482.333923,485.477844 483.167450,485.171600 484.192596,484.969696 
	C484.293396,483.339783 484.485138,481.669983 484.486603,480.000000 
	C484.506500,457.333344 484.503601,434.666656 484.497437,412.000000 
	C484.495972,406.518829 484.481171,406.504791 479.000000,406.502625 
	C461.333344,406.495667 443.666656,406.500000 426.000000,406.500000 
"/>
</svg>